<svg id="SvgjsSvg1001" width="288" height="288" xmlns="http://www.w3.org/2000/svg" version="1.1" xmlns:xlink="http://www.w3.org/1999/xlink" xmlns:svgjs="http://svgjs.com/svgjs"><defs id="SvgjsDefs1002"></defs><g id="SvgjsG1008"><svg xmlns="http://www.w3.org/2000/svg" width="288" height="288" viewBox="0 0 13.229 13.229"><path fill-rule="evenodd" d="m245.68-22.49c-3.6526 0-6.6141 3.0364-6.6141 6.7822 0 2.9964 1.8951 5.5382 4.5236 6.4354 0.33095 0.06208 0.45156-0.14738 0.45156-0.32724 0-0.16072-6e-3 -0.58746-9e-3 -1.1533-1.8399 0.40969-2.2281-0.90928-2.2281-0.90928-0.3009-0.78314-0.73459-0.99173-0.73459-0.99173-0.60058-0.42092 0.0455-0.41259 0.0455-0.41259 0.66392 0.04827 1.0132 0.69903 1.0132 0.69903 0.59003 1.0363 1.5484 0.73693 1.9252 0.56372 0.0601-0.4384 0.23065-0.73734 0.41988-0.90679-1.4688-0.17112-3.0131-0.75316-3.0131-3.352 0-0.74026 0.25786-1.3456 0.68098-1.8198-0.0683-0.17154-0.29521-0.861 0.0646-1.7948 0 0 0.55551-0.18236 1.8192 0.69529 0.52749-0.1503 1.0936-0.22566 1.656-0.22815 0.56159 0.0023 1.1277 0.07789 1.656 0.22815 1.2629-0.87765 1.8172-0.69529 1.8172-0.69529 0.361 0.93385 0.13401 1.6233 0.0657 1.7948 0.42394 0.47421 0.68018 1.0796 0.68018 1.8198 0 2.6055-1.5467 3.1788-3.0204 3.3465 0.23755 0.20941 0.44911 0.62325 0.44911 1.2561 0 0.90636-8e-3 1.6379-8e-3 1.8602 0 0.18152 0.11899 0.39261 0.4548 0.3264 2.6265-0.89887 4.52-3.439 4.52-6.4345 0-3.7458-2.9619-6.7822-6.6153-6.7822" transform="translate(-239.07 22.49)" fill="#ffffff" class="color000 svgShape"></path></svg></g></svg>