<svg id="SvgjsSvg1011" width="288" height="288" xmlns="http://www.w3.org/2000/svg" version="1.1" xmlns:xlink="http://www.w3.org/1999/xlink" xmlns:svgjs="http://svgjs.com/svgjs"><defs id="SvgjsDefs1012"></defs><g id="SvgjsG1013"><svg xmlns="http://www.w3.org/2000/svg" width="288" height="288" viewBox="0 0 18.833 13.229"><path stroke="#000" stroke-width=".154" d="m-46.469 35.308v-5.6038l4.8528 2.8019zm10.817-7.2979c-0.21495-0.80353-0.84781-1.4365-1.6515-1.6513-1.4567-0.39039-7.2979-0.39039-7.2979-0.39039s-5.841 0-7.2977 0.39039c-0.80368 0.2148-1.4365 0.84781-1.6513 1.6513-0.39039 1.4567-0.39039 4.496-0.39039 4.496s0 3.0393 0.39039 4.496c0.2148 0.80353 0.84766 1.4365 1.6513 1.6513 1.4567 0.39039 7.2977 0.39039 7.2977 0.39039s5.8412 0 7.2979-0.39039c0.80368-0.2148 1.4365-0.84781 1.6515-1.6513 0.39023-1.4567 0.39023-4.496 0.39023-4.496s0-3.0393-0.39023-4.496" transform="translate(54.018 -25.891)" fill="#ffffff" class="color000 svgShape colorStroke000 svgStroke"></path></svg></g></svg>